<svg width="124" height="110" viewBox="0 0 124 110" fill="none" xmlns="http://www.w3.org/2000/svg">
<path fill-rule="evenodd" clip-rule="evenodd" d="M51.0301 0.862672C47.0023 2.61143 46.2542 7.53656 49.4625 11.1842C50.5167 12.3827 51.563 14.0923 51.7867 14.982C52.1712 16.5121 51.9325 16.6779 47.4169 18.0128C44.79 18.789 40.9126 20.4685 38.801 21.744C36.6894 23.0195 34.8432 24.0633 34.6994 24.0633C34.5548 24.0633 33.5608 22.684 32.4896 20.9979C31.0594 18.7465 30.5421 17.1388 30.5421 14.9422C30.5421 6.59331 21.0545 3.16237 15.4827 9.49682C13.5673 11.6744 13.4189 12.1621 13.6876 15.4004C13.9257 18.2602 14.3658 19.3144 16.004 20.9503C17.6833 22.6259 18.6734 23.0221 21.832 23.2787C24.6251 23.5058 26.381 24.0966 28.4318 25.4994L31.2262 27.4107L28.8817 30.1432C26.3463 33.0989 21.3867 42.4433 21.3867 44.2658C21.3867 46.0485 20.823 46.1875 18.0332 45.0941C16.4768 44.4838 15.0354 43.3362 14.4802 42.2644C13.0945 39.5894 11.0057 38.4242 7.59599 38.4242C3.92269 38.4242 1.53639 40.0646 0.456049 43.3323C-0.603366 46.5361 0.171577 49.1335 2.90055 51.5252C4.96445 53.3334 5.59749 53.5449 8.11327 53.2616C9.68801 53.0847 11.5027 52.4639 12.1456 51.8829C12.9061 51.1962 14.4985 50.8267 16.6972 50.8267H20.0788L20.0886 55.5593C20.101 61.6483 21.4835 67.4214 24.1556 72.5378C25.3249 74.7781 26.3699 76.7951 26.4778 77.0203C26.5857 77.2462 24.801 77.9361 22.5122 78.555C18.6106 79.6085 18.1489 79.6111 15.1381 78.5909C9.55525 76.6985 3.92335 78.8533 1.70511 83.7294C-0.386905 88.3262 0.263785 92.5542 3.60814 96.0968C5.77863 98.3958 7.83599 99.2313 11.3412 99.2366C16.3656 99.2437 20.8871 95.5282 21.7006 90.7245C22.0531 88.6389 22.8764 87.5044 26.0154 84.7791L29.8947 81.4115L33.3247 84.422C37.0935 87.7296 44.3767 91.6658 47.9748 92.3401C50.208 92.7579 50.2623 92.8388 49.8366 95.1059C49.5946 96.3905 48.6863 98.2848 47.8172 99.3156C45.7199 101.804 45.2543 103.944 46.2758 106.405C47.2417 108.732 50.6344 110.462 53.0475 109.858C57.0066 108.866 58.7148 104.662 56.7287 100.8C56.0002 99.3841 55.2298 97.2985 55.0173 96.166L54.6301 94.1058L60.041 93.6554C64.5638 93.2794 70.1839 91.8544 75.7916 89.6618C76.6588 89.3223 77.3402 90.1024 78.9417 93.2696C80.1267 95.6124 80.9389 98.1732 80.8749 99.3632C80.6224 104.056 80.9239 105.164 83.0225 107.255C88.7819 112.994 97.2369 109.193 97.2435 100.861C97.2454 98.1295 96.9414 97.3912 95.0226 95.476C93.7997 94.2553 92.1616 93.2566 91.3827 93.2566C89.4993 93.2566 87.7427 92.2853 83.9766 89.1611L80.8435 86.5624L85.0046 82.2398C87.2935 79.8618 90.0277 76.3571 91.0806 74.451C92.862 71.227 93.132 71.0122 94.9572 71.3654C96.0363 71.5743 97.0296 72.0684 97.1644 72.4633C97.2991 72.8589 98.231 74.1005 99.2361 75.2232C100.787 76.9563 101.522 77.2638 104.113 77.2638C106.731 77.2638 107.433 76.9622 109.071 75.1319C111.919 71.9503 111.529 67.7922 108.123 65.0388C106.218 63.4983 101.926 63.5759 99.8619 65.1876C98.9627 65.89 97.5567 66.4709 96.7373 66.4788C95.2836 66.4925 95.26 66.388 95.7557 62.087C96.3874 56.6096 96.3959 53.5658 95.7943 48.4676L95.3228 44.4766L99.3911 44.1059C102.749 43.7997 103.687 43.942 104.767 44.9199C108.676 48.4611 113.633 49.1224 118.199 46.7124C124.897 43.177 126.023 33.7791 120.379 28.5113C114.108 22.6592 104.085 25.5908 102.026 33.879C101.558 35.7583 100.861 36.4385 97.8837 37.9137C95.9146 38.8896 94.0999 39.6971 93.8514 39.7088C93.6022 39.7206 92.4957 38.0403 91.3918 35.9763C90.288 33.9116 87.916 30.6308 86.1216 28.6849C84.3271 26.7397 82.859 25.0301 82.859 24.8864C82.859 24.7422 83.7189 23.3766 84.7705 21.8511C86.1595 19.8366 87.4066 18.8614 89.3312 18.2857C94.4825 16.7451 96.957 11.2116 94.7362 6.19969C92.5546 1.27587 87.4243 -0.681773 82.8721 1.6721C78.0687 4.15458 76.4175 9.34603 78.8914 14.1863C79.8815 16.1237 80.0358 17.1903 79.6029 19.1075C79.2982 20.4542 78.9195 21.6853 78.7606 21.8439C78.6017 22.0032 76.7327 21.2714 74.6066 20.2185C70.7568 18.3118 62.4574 16.2301 58.7063 16.2301C56.832 16.2301 56.7535 16.1244 57.1453 14.1086C57.3722 12.9415 58.1 11.2867 58.7638 10.4303C61.1887 7.30156 59.6519 1.91624 55.9688 0.634205C53.4478 -0.243113 53.591 -0.249642 51.0301 0.862672ZM67.8794 26.38C70.3095 27.6339 72.3897 30.9337 72.393 33.5389C72.3995 38.4444 67.4392 42.9048 62.9204 42.0588C61.6785 41.8264 59.7801 40.8942 58.701 39.9882C51.3433 33.8085 59.3301 21.9666 67.8794 26.38ZM41.9433 52.116C46.3896 53.8034 47.3287 60.068 43.6338 63.3925C39.2686 67.3202 32.5524 64.3227 32.5184 58.4315C32.5073 56.4334 32.9592 55.464 34.7275 53.6989C37.0491 51.3816 38.9246 50.9703 41.9433 52.116ZM78.8463 55.8739C81.657 57.9517 83.5129 61.2005 83.5129 64.0433C83.5129 73.8511 72.0137 77.9838 65.6683 70.4561C61.621 65.6543 63.573 57.6677 69.4528 54.9705C72.0013 53.8014 76.647 54.2485 78.8463 55.8739Z" fill="#F13E1D"/>
</svg>
